<svg xmlns="http://www.w3.org/2000/svg" height="40" viewBox="0 -960 960 960" width="40"><path d="M527.348-256.898q-12.638-13.015-12.66-31.442-.022-18.428 12.326-30.776l118.522-118.145H190.884q-18.667 0-31.37-12.703t-12.703-31.369q0-18.667 12.703-31.37t31.37-12.703h454.652L526.014-644.928q-12.638-12.637-12.304-30.565.333-17.928 12.971-30.942 13.014-12.348 31.37-12.348 18.355 0 30.703 12.348l193.667 194.232q6.652 6.652 9.949 14.485 3.297 7.834 3.297 16.385 0 8.55-3.297 16.384-3.297 7.833-9.949 14.485L589.087-256.565q-12.87 12.87-30.797 12.587-17.928-.282-30.942-12.92Z"/></svg>