<svg xmlns="http://www.w3.org/2000/svg" height="40" viewBox="0 -960 960 960" width="40"><path d="M481.333-421.334 279.666-219.667q-13.333 13.333-30.333 13.333t-29.666-13.333q-13.333-12.666-13.333-29.5 0-16.833 13.333-29.499l202.667-202.667L218.667-684Q206-696.667 206-713.333q0-16.667 12.667-29.334 12.666-12.666 29.5-12.666 16.833 0 30.166 12.666L480-541.333l201-201Q693.667-755 710.667-755T741-742.333Q753.666-729 753.666-711.5T741-681.334L539.666-479.667l201.667 202.334Q753.666-265 753.666-248t-12.333 29.333Q729-206.334 712.167-206.334t-28.5-12.333L481.333-421.334Z"/></svg>