<svg xmlns="http://www.w3.org/2000/svg" height="40" viewBox="0 -960 960 960" width="40" fill="currentColor" stroke="currentColor"><path d="M150.333-225.334q-17.833 0-30.083-12.406T108-267.573q0-17.427 12.25-29.593 12.25-12.167 30.083-12.167h661.334q17.183 0 29.425 12.284 12.241 12.283 12.241 29.71t-12.241 29.716q-12.242 12.289-29.425 12.289H150.333Zm0-213.333q-17.833 0-30.083-12.406Q108-463.48 108-480.906q0-17.427 12.25-29.594 12.25-12.166 30.083-12.166h661.334q17.183 0 29.425 12.283 12.241 12.284 12.241 29.711 0 17.426-12.241 29.716-12.242 12.289-29.425 12.289H150.333Zm0-212q-17.833 0-30.083-12.406Q108-675.48 108-692.907q0-17.426 12.25-29.593 12.25-12.166 30.083-12.166h661.334q17.183 0 29.425 12.283 12.241 12.284 12.241 29.71 0 17.427-12.241 29.717-12.242 12.289-29.425 12.289H150.333Z"/></svg>